<svg xmlns="http://www.w3.org/2000/svg" viewBox="0 0 1074.7 174.45">
  <title>frontshift</title>
  <g id="Layer_1-2" data-name="Layer 1">
    <path
      d="M63.06,72.2H83.78v-25H63.06c0-4.46-.89-14.26,12.26-14.26a19.5,19.5,0,0,1,8.47,1.56V3.12A104.32,104.32,0,0,0,59.72,0C35.21,0,23.4,9.36,19.39,20.5c-2,5.79-2.23,14.26-2.23,15.38V47.24H0v25H17.16v2.16l45.9,2.85Z"/>
    <polygon points="27.16 84.36 27.16 169.99 73.06 169.99 73.06 87.2 27.16 84.36"/>
    <path
      d="M164.91,80.44c2.23,0,4.46.22,6.68.45V42.11c-12,0-21.84.45-32.09,7.58a43.11,43.11,0,0,0-6.24,4.9v-10H89.15V78.82l59.46,3.69C155.54,79.9,162.87,80.31,164.91,80.44Z"/>
    <path d="M99.15,88.82V170h45.68V115.62c0-4,0-7.13,1.34-10.92,2.37-6.65,7.3-10.25,12.45-12.19Z"/>
    <path
      d="M269.68,99.39a56.3,56.3,0,0,1,1.15,12c0,12.92-3.34,21.61-7.35,25.62-3.57,3.57-8.47,5.13-13.82,5.13a22.19,22.19,0,0,1-8.69-1.56,16.71,16.71,0,0,1-6.91-5.57c-2.9-4-5.79-11.81-5.79-23.17A49,49,0,0,1,230.34,97l-45.27-2.81a72.88,72.88,0,0,0-2.47,19c0,26.29,12.92,41,21.39,47.68,16.93,13.37,37.66,13.59,44.34,13.59,28.74,0,45.9-11.59,53.92-20.5,13.82-15.37,14.93-35.21,14.93-41.45a71.09,71.09,0,0,0-.75-10.21Z"/>
    <path
      d="M225,78.43A19.5,19.5,0,0,1,239.44,72,23.21,23.21,0,0,1,247,73.09c6,2.12,10.63,7,12.67,16.31l46.74,2.9c-2-14-8.24-27.9-18.63-37-17.16-14.93-41-15.6-47-15.6C212.7,39.44,196.21,51,188.42,59.49a58.5,58.5,0,0,0-13.35,24.65L220.34,87A22.38,22.38,0,0,1,225,78.43Z"/>
    <path d="M326.87,170h45.68v-61.5c0-.73,0-1.66,0-2.71l-45.72-2.83Z"/>
    <path
      d="M440.76,87.13c0-8.24-.67-12.26-1.56-16-1.78-7.58-5.57-15.15-11.59-20.05-10.92-9.36-25.18-9.58-29.41-9.58-11.81,0-24.07,3.12-32.53,11.59a34.67,34.67,0,0,0-5.57,6.91V44.57H316.87V92.94l45.72,2.83c.27-6,2.25-16.23,16.67-16.23,10.47,0,13.82,5.57,14.93,9.58a30.79,30.79,0,0,1,.67,7.8v.85l45.9,2.85Z"/>
    <polygon points="404.86 107.78 404.86 169.99 450.76 169.99 450.76 110.62 404.86 107.78"/>
    <polygon
      points="508.05 72.19 528.1 72.19 528.1 47.24 508.5 47.24 508.72 10.92 462.59 10.92 462.15 47.24 446.11 47.24 446.11 72.19 461.93 72.19 461.57 101.91 507.56 104.76 508.05 72.19"/>
    <path
      d="M517.38,126.54l.18-11.77-46-2.85-.31,26.21a48.63,48.63,0,0,0,1.34,12.48c3.34,11.59,12.48,20.95,36.77,20.95,12.48,0,25.18-2,29-2.45V137.68a32.19,32.19,0,0,1-8.24.89C518,138.57,517.38,131.22,517.38,126.54Z"/>
    <path
      d="M627,91.36c-7.35-3.79-17.16-5.35-34.09-9.58-5.57-1.34-10-2.23-12-3.34A4.88,4.88,0,0,1,577.79,74a5.8,5.8,0,0,1,3.34-4.9A16.71,16.71,0,0,1,587.6,68c14,0,26.29,8.91,29.64,11.14L642,56.6a74.14,74.14,0,0,0-11.14-7.35c-12.48-6.46-30.08-9.36-43.9-9.36-25.85,0-39,9.58-45.68,18.94a36.75,36.75,0,0,0-6.69,20.5,32.92,32.92,0,0,0,3.12,13.81,30.08,30.08,0,0,0,13.52,14.33l93.19,5.78A33.26,33.26,0,0,0,627,91.36Z"/>
    <path
      d="M561.2,117.47a64.73,64.73,0,0,0,10.55,4.39,175.53,175.53,0,0,0,22.73,5.79c8.69,1.56,13.82,1.11,16.71,5.57a4.49,4.49,0,0,1,.89,2.67,7.22,7.22,0,0,1-4.46,6,19,19,0,0,1-7.58,1.34c-14,0-25.4-7.13-29.19-9.8-2.23-1.78-4.23-3.57-6.46-5.57l-25.85,23.4c4.23,3.12,8.24,6.46,12.7,9.13a93.59,93.59,0,0,0,49.24,14c6.24,0,37-.45,50.13-24.29a37.07,37.07,0,0,0,4.68-18.72,36.08,36.08,0,0,0-.91-8.19Z"/>
    <polygon points="664.57 169.99 710.48 169.99 710.48 126.72 664.57 123.88 664.57 169.99"/>
    <polygon points="743.9 128.8 743.9 169.99 789.8 169.99 789.8 131.64 743.9 128.8"/>
    <path
      d="M779.8,84.67a67.75,67.75,0,0,0-1.34-14.93,34.19,34.19,0,0,0-9.36-18.49C760.86,43,748.16,39.66,737,39.66c-16.71,0-27.18,6.46-31.64,10.7a52.94,52.94,0,0,0-5.12,5.79V2.67H654.57v111.2l45.9,2.85V94.92a23.48,23.48,0,0,1,.67-6.69c2.67-10.25,12.7-10.7,16.27-10.7,11.36,0,14.93,6,15.82,10.47a20.3,20.3,0,0,1,.67,6V118.8l45.9,2.85Z"/>
    <rect x="795.11" y="2.67" width="45.9" height="30.53"/>
    <polygon points="841.01 44.56 795.11 44.56 795.11 122.59 841.01 125.44 841.01 44.56"/>
    <polygon points="805.11 132.59 805.11 169.99 851.01 169.99 851.01 135.44 805.11 132.59"/>
    <path
      d="M910.5,72.2h20.72v-25H910.5c0-4.46-.89-14.26,12.26-14.26a19.5,19.5,0,0,1,8.47,1.56V3.12A104.31,104.31,0,0,0,907.16,0c-24.51,0-36.32,9.36-40.33,20.5-2,5.79-2.23,14.26-2.23,15.38V47.24H847.45v25H864.6V126.9l45.9,2.85Z"/>
    <polygon points="874.6 136.9 874.6 169.99 920.5 169.99 920.5 139.75 874.6 136.9"/>
    <path
      d="M1013,127.68a32.18,32.18,0,0,1-8.24.89c-12,0-12.7-7.35-12.7-12l.67-44.34h20.05v-25H993.21l.22-36.32H947.31l-.45,36.32h-16v25h15.82L946,128.13c0,1.26,0,2.53.09,3.83l67,4.15Z"/>
    <path d="M956.07,142a42,42,0,0,0,1.25,8.65c3.34,11.59,12.48,20.95,36.77,20.95,12.48,0,25.18-2,29-2.45v-23Z"/>
    <polygon points="1064.69 118.1 1024.14 118.1 1024.14 136.79 1064.69 139.31 1064.69 118.1"/>
    <polygon points="1034.14 146.79 1034.14 169.99 1074.69 169.99 1074.69 149.31 1034.14 146.79"/>
  </g>
</svg>
