<svg xmlns="http://www.w3.org/2000/svg" viewBox="0 0 1084.7 164.45"><title>Asset 4</title><g id="Layer_2" data-name="Layer 2"><g id="Layer_1-2" data-name="Layer 1"><path d="M63.06,72.2V160H17.16V72.2H0v-25H17.16V35.88c0-1.11.22-9.58,2.23-15.37C23.4,9.36,35.21,0,59.72,0A104.32,104.32,0,0,1,83.78,3.12V34.54A19.5,19.5,0,0,0,75.31,33c-13.15,0-12.26,9.8-12.26,14.26H83.78v25Z"/><path d="M164.91,80.44c-3.57-.22-23.17-1.34-28.74,14.26-1.34,3.79-1.34,6.91-1.34,10.92V160H89.15V44.57h44.12v10a43.11,43.11,0,0,1,6.24-4.9c10.25-7.13,20.05-7.58,32.09-7.58V80.89C169.37,80.66,167.14,80.44,164.91,80.44Z"/><path d="M292.25,143.95c-8,8.91-25.18,20.5-53.92,20.5-6.68,0-27.41-.22-44.34-13.59-8.47-6.68-21.39-21.39-21.39-47.68,0-16,4.9-31.86,15.82-43.67,7.8-8.47,24.29-20.05,52.36-19.83,6,0,29.86.67,47,15.6,12.92,11.36,19.39,30.08,19.39,47.24C307.18,108.74,306.07,128.57,292.25,143.95ZM247,73.09A23.21,23.21,0,0,0,239.44,72,19.5,19.5,0,0,0,225,78.43c-3.57,3.79-6.69,11.59-6.69,23.4,0,11.36,2.9,19.16,5.79,23.17a16.71,16.71,0,0,0,6.91,5.57,22.19,22.19,0,0,0,8.69,1.56c5.35,0,10.25-1.56,13.82-5.13,4-4,7.35-12.7,7.35-25.62C260.83,84,255.26,76,247,73.09Z"/><path d="M394.86,160V96.93a30.79,30.79,0,0,0-.67-7.8c-1.11-4-4.46-9.58-14.93-9.58-16.93,0-16.71,14-16.71,18.94V160H316.87V44.57H360.1V59.94A34.67,34.67,0,0,1,365.67,53c8.47-8.47,20.72-11.59,32.53-11.59,4.23,0,18.49.22,29.41,9.58,6,4.9,9.8,12.48,11.59,20.05.89,3.79,1.56,7.8,1.56,16V160Z"/><path d="M499.36,161.55c-24.29,0-33.42-9.36-36.77-20.95a48.63,48.63,0,0,1-1.34-12.48l.67-55.93H446.1v-25h16l.45-36.32h46.13l-.22,36.32H528.1v25H508l-.67,44.34c0,4.68.67,12,12.7,12a32.19,32.19,0,0,0,8.24-.89V159.1C524.54,159.54,511.84,161.55,499.36,161.55Z"/><path d="M624.5,90.18c-7.07-3-16.49-4.64-31.55-8.41-5.57-1.34-10-2.23-12-3.34A4.88,4.88,0,0,1,577.79,74a5.8,5.8,0,0,1,3.34-4.9A16.71,16.71,0,0,1,587.6,68c14,0,26.29,8.91,29.64,11.14L642,56.6a74.14,74.14,0,0,0-11.14-7.35c-12.48-6.46-30.08-9.36-43.9-9.36-25.85,0-39,9.58-45.68,18.94a36.75,36.75,0,0,0-6.69,20.5,31.75,31.75,0,0,0,1.93,10.86Z"/><path d="M562.11,100.18c5,6,11.62,9,19.64,11.68a175.53,175.53,0,0,0,22.73,5.79c8.69,1.56,13.82,1.11,16.71,5.57a4.49,4.49,0,0,1,.89,2.67,7.22,7.22,0,0,1-4.46,6,19,19,0,0,1-7.58,1.34c-14,0-25.4-7.13-29.19-9.8-2.23-1.78-4.23-3.57-6.46-5.57l-25.85,23.4c4.23,3.12,8.24,6.46,12.7,9.13a93.59,93.59,0,0,0,49.24,14c6.24,0,37-.45,50.13-24.29a37.07,37.07,0,0,0,4.68-18.72A32.7,32.7,0,0,0,658,100.18Z"/><rect x="753.9" y="100.18" width="45.9" height="59.81"/><path d="M700.72,90.18a13.84,13.84,0,0,1,.42-1.94c2.67-10.25,12.7-10.7,16.27-10.7,11.36,0,14.93,6,15.82,10.47.19.86.34,1.48.45,2.17H779.8V84.67a67.75,67.75,0,0,0-1.34-14.93,34.19,34.19,0,0,0-9.36-18.49C760.86,43,748.16,39.66,737,39.66c-16.71,0-27.18,6.46-31.64,10.7a52.94,52.94,0,0,0-5.12,5.79V2.67H654.57V90.18Z"/><rect x="674.57" y="100.18" width="45.9" height="59.81"/><rect x="795.11" y="2.67" width="45.9" height="30.53"/><rect x="795.11" y="44.57" width="45.9" height="45.62"/><rect x="815.11" y="100.18" width="45.9" height="59.81"/><path d="M864.6,90.18h45.9v-18h20.72v-25H910.5c0-4.46-.89-14.26,12.26-14.26a19.5,19.5,0,0,1,8.47,1.56V3.12A104.31,104.31,0,0,0,907.16,0c-24.51,0-36.32,9.36-40.33,20.5-2,5.79-2.23,14.26-2.23,15.38V47.24H847.45v25H864.6Z"/><rect x="884.6" y="100.18" width="45.9" height="59.81"/><polygon points="946.43 90.18 992.5 90.18 992.77 72.19 1012.82 72.19 1012.82 47.24 993.22 47.24 993.44 10.92 947.31 10.92 946.87 47.24 930.82 47.24 930.82 72.19 946.64 72.19 946.43 90.18"/><path d="M1012.1,116.54l.25-16.35h-46L966,128.13a48.6,48.6,0,0,0,1.34,12.48c3.34,11.59,12.48,20.95,36.77,20.95,12.48,0,25.18-2,29-2.45V127.68a32.18,32.18,0,0,1-8.24.89C1012.77,128.57,1012.1,121.22,1012.1,116.54Z"/><path d="M1044.14,160V118.1h40.55V160Z"/></g></g></svg>